<svg version="1.0" xmlns="http://www.w3.org/2000/svg" xmlns:xlink="http://www.w3.org/1999/xlink" width="100%" height="100%" viewBox="0 0 340.000000 250.000000" preserveAspectRatio="xMidYMid meet" color-interpolation-filters="sRGB" style="margin: auto;">
    <g fill="#9b0a8c" transform="translate(35,35) scale(2)">
        <g transform="translate(0,0)">
            <g transform="translate(0, 0)" mask="url(#5fee648a-50a6-49b0-b733-9c6d6d10048e)">
                <polyline data-gra="graph-name" fill-opacity="1" fill="#9b0a8c" x="0" y="0" width="43.0703125" height="52.97265625" points="0,0 43.0703125,12 43.0703125,64.97265625 0,76.97265625 0,12"></polyline>
                <g data-gra="path-name" fill="#ffffff" transform="translate(3.0001564025878906,15)">
                    <g transform="scale(1)" fill="#9b0a8c">
                        <path d="M12.44-46.46L35.80-8.89L35.80-46.46L41.89-46.46L41.89 0L34.79 0L11.17-37.58L10.92-37.58L10.92 0L4.82 0L4.82-46.46L12.44-46.46Z" transform="translate(-4.82421875, 46.46484375)"></path>
                    </g>
                </g>
            </g>
            <g transform="translate(47.0703125, 0)">
                <g data-gra="path-name" fill="#9b0a8c" transform="translate(0,15)">
                    <g transform="scale(1)">
                        <path d="M27.42-10.66L27.42-10.66L33.01-10.66Q31.99-4.82 26.91-1.27L26.91-1.27Q24.12 0.51 17.77 0.51L17.77 0.51Q3.30 0 2.54-16.00L2.54-16.00Q3.05-34.53 18.79-35.04L18.79-35.04Q33.26-34.79 33.52-14.98L33.52-14.98L8.63-14.98Q8.63-3.81 18.54-3.81L18.54-3.81Q25.64-4.32 27.42-10.66ZM8.63-19.55L8.63-19.55L27.68-19.55Q26.91-29.71 18.03-29.71L18.03-29.71Q9.65-28.95 8.63-19.55Z" transform="translate(-2.5390625, 46.46484375)"></path>
                    </g>
                </g>
            </g>
            <g transform="translate(82.046875, 0)">
                <g data-gra="path-name" fill="#9b0a8c" transform="translate(0,15)">
                    <g transform="scale(1)">
                        <path d="M31.23-34.02L19.80-17.52L31.74 0L24.63 0L16.00-12.70L7.87 0L0.76 0L12.70-17.52L1.27-34.02L8.63-34.02L16.50-21.84L24.38-34.02L31.23-34.02Z" transform="translate(-0.76171875, 46.46484375)"></path>
                    </g>
                </g>
            </g>
            <g transform="translate(117.0234375, 0)">
                <g data-gra="path-name" fill="#9b0a8c" transform="translate(0,15)">
                    <g transform="scale(1)">
                        <path d="M16.76-34.02L16.76-29.20L11.17-29.20L11.17-7.11Q11.17-4.32 14.47-4.32L14.47-4.32L16.76-4.32L16.76 0Q15.23 0 13.20 0L13.20 0Q12.70 0 12.44 0L12.44 0Q5.08 0 5.33-6.60L5.33-6.60L5.33-29.20L1.02-29.20L1.02-34.02L5.33-34.02L5.33-43.42L11.17-43.42L11.17-34.02L16.76-34.02Z" transform="translate(-1.015625, 46.46484375)"></path>
                    </g>
                </g>
            </g>
        </g>
        <g data-gra="path-slogan" fill-rule="" fill="#9b0a8c" transform="translate(38.773902893066406,82.97265625)"><!----> <!---->
            <g transform="scale(1, 1)">
                <g transform="scale(1)">
                    <path d="M2.20-1.03L7.36-1.03L7.36 0L1.03 0L1.03-8.58L7.27-8.58L7.27-7.59L2.20-7.59L2.20-4.92L6.89-4.92L6.89-3.89L2.20-3.89L2.20-1.03ZM8.86-8.58L10.03-8.58L10.03-1.03L14.39-1.03L14.39 0L8.86 0L8.86-8.58ZM16.83-1.03L21.98-1.03L21.98 0L15.66 0L15.66-8.58L21.89-8.58L21.89-7.59L16.83-7.59L16.83-4.92L21.52-4.92L21.52-3.89L16.83-3.89L16.83-1.03ZM31.73-8.58L31.73 0L30.61 0L30.61-5.06Q30.61-5.77 30.61-7.22L30.61-7.22L28.17 0L27 0L24.61-7.22L24.56-7.22Q24.56-6.70 24.61-5.67L24.61-5.67Q24.61-5.16 24.61-5.06L24.61-5.06L24.61 0L23.44 0L23.44-8.58L25.13-8.58L27.61-1.31L30.05-8.58L31.73-8.58ZM34.73-1.03L39.89-1.03L39.89 0L33.56 0L33.56-8.58L39.80-8.58L39.80-7.59L34.73-7.59L34.73-4.92L39.42-4.92L39.42-3.89L34.73-3.89L34.73-1.03ZM42.80-8.58L47.11-1.64L47.11-8.58L48.23-8.58L48.23 0L46.92 0L42.56-6.94L42.52-6.94L42.52 0L41.39 0L41.39-8.58L42.80-8.58ZM52.22-7.59L49.31-7.59L49.31-8.58L56.25-8.58L56.25-7.59L53.34-7.59L53.34 0L52.22 0L52.22-7.59Z" transform="translate(-1.03125, 8.578125)"></path>
                </g>
            </g>
        </g>
    </g>
    <mask id="5fee648a-50a6-49b0-b733-9c6d6d10048e">
        <polyline data-gra="graph-name" fill-opacity="1" x="0" y="0" width="43.0703125" height="52.97265625" points="0,0 43.0703125,12 43.0703125,64.97265625 0,76.97265625 0,12" fill="white"></polyline>
        <g data-gra="path-name" transform="translate(3.0001564025878906,15)" fill="black">
            <g transform="scale(1)">
                <path d="M12.44-46.46L35.80-8.89L35.80-46.46L41.89-46.46L41.89 0L34.79 0L11.17-37.58L10.92-37.58L10.92 0L4.82 0L4.82-46.46L12.44-46.46Z" transform="translate(-4.82421875, 46.46484375)"></path>
            </g>
        </g>
    </mask>
    <defs v-gra="od"></defs>
</svg>